<svg width="255" height="13" viewBox="0 0 255 13" fill="none" xmlns="http://www.w3.org/2000/svg"><path d="M216.861 9.867v2.785h-1.481V4.876h3.456c1.481 0 2.839 1.16 2.715 2.553 0 1.625-1.234 2.438-2.962 2.438h-1.728zm1.852-3.83h-1.852v2.785h1.852c.987 0 1.604-.58 1.604-1.393 0-.928-.494-1.393-1.604-1.393zM242.288 8.473L238.09 4.76v7.893h1.11V7.545l1.976 1.741.987.929.988-.929 1.974-1.741v5.107h1.481V4.759l-4.32 3.714zM234.758 4.876h-1.481v7.776h1.481V4.876zM249.939 4.876v7.776h5.06v-1.16h-3.702V9.054h3.332v-1.16h-3.332V6.036H255v-1.16h-5.061zM225.625 9.518v3.134h-1.358V4.876h2.962c1.728 0 2.84.812 2.84 2.321 0 1.277-.618 2.09-1.976 2.205l2.962 3.25h-1.604l-2.839-3.134h-.987zm0-1.16h1.604c.988 0 1.481-.464 1.481-1.16 0-.697-.493-1.162-1.48-1.162h-1.605v2.322z" fill="#67C2E5"/><path d="M29.992 3.366c0 2.09 1.358 2.902 3.086 3.482l1.851.696c1.235.465 1.852.813 1.852 1.742 0 1.16-1.111 1.625-2.592 1.625-1.605 0-2.963-.58-4.197-1.393v2.205c.864.58 2.469 1.045 4.197 1.045 2.715 0 4.69-1.277 4.69-3.482 0-1.858-.987-2.902-2.962-3.599l-2.099-.696c-1.11-.348-1.728-.696-1.728-1.625 0-1.045.988-1.509 2.346-1.509 1.604 0 2.715.58 3.826 1.277v-2.09C37.274.349 35.917 0 34.436 0c-2.469 0-4.444 1.16-4.444 3.366zM97.013 3.366c0 2.09 1.357 2.902 3.085 3.482l1.852.696c1.234.465 1.851.813 1.851 1.742 0 1.16-1.11 1.625-2.592 1.625-1.604 0-2.962-.58-4.196-1.393v2.205c.864.58 2.468 1.045 4.196 1.045 2.716 0 4.69-1.277 4.69-3.482 0-1.742-.987-2.902-2.962-3.599l-2.098-.696c-1.11-.348-1.728-.696-1.728-1.625 0-1.045.987-1.509 2.345-1.509 1.605 0 2.715.58 3.826 1.277v-2.09C104.295.349 102.937 0 101.456 0c-2.345 0-4.443 1.16-4.443 3.366zM83.56 3.366c0 2.09 1.357 2.902 3.085 3.482l1.852.696c1.234.465 1.851.813 1.851 1.742 0 1.16-1.11 1.625-2.592 1.625-1.604 0-2.962-.58-4.196-1.393v2.205c.864.58 2.468 1.045 4.196 1.045 2.839 0 4.814-1.161 4.814-3.482 0-1.742-.988-2.902-2.962-3.599l-2.099-.696c-1.11-.348-1.728-.696-1.728-1.625 0-1.045.988-1.509 2.345-1.509 1.605 0 2.716.58 3.827 1.277v-2.09C90.842.349 89.484 0 88.003 0c-2.345 0-4.443 1.16-4.443 3.366zM70.477.232v12.42H78.5v-1.858h-5.8V6.848h5.183v-1.74H72.7V2.088H78.5V.232h-8.023zM2.222 7.196H5.06c1.48 0 2.345.697 2.345 1.857 0 1.161-.864 1.857-2.345 1.857H2.22V7.196zm0-5.223H4.69c1.481 0 2.345.464 2.345 1.625 0 1.16-.864 1.741-2.345 1.741H2.222V1.973zM0 .233v12.419h5.06c2.716 0 4.444-1.277 4.444-3.599a2.914 2.914 0 0 0-2.098-2.785c.987-.348 1.728-1.277 1.728-2.67C9.134 1.393 7.406.232 4.69.232H0zM44.803 12.652h2.221V.232h-2.221v12.42zM22.588.232v7.196c0 2.438-1.11 3.482-3.085 3.482-1.975 0-3.086-1.16-3.086-3.482V.232h-2.222v7.429c0 3.366 2.099 5.107 5.308 5.107 3.209 0 5.307-1.741 5.307-5.107V.232h-2.222zM62.454.232v7.893L53.32 0v12.652h2.222V4.527l9.01 8.24V.233h-2.098zM119.228 12.652h-2.222V.232h2.222v12.42zM137.249 12.768l-9.134-8.241v8.125h-2.098V0l9.134 8.125V.232h2.098v12.536zM143.05 9.518c1.234.929 2.591 1.393 4.196 1.393 1.481 0 2.592-.464 2.592-1.625 0-.929-.617-1.393-1.852-1.741l-1.974-.58c-1.728-.58-3.086-1.51-3.086-3.483 0-2.205 1.975-3.366 4.443-3.366 1.481 0 2.84.349 3.95 1.045v2.205c-1.11-.812-2.345-1.276-3.826-1.276-1.358 0-2.345.464-2.345 1.509 0 .928.617 1.276 1.728 1.624l2.098.697c2.098.696 2.962 1.857 2.962 3.598 0 2.321-2.098 3.482-4.69 3.482-1.728 0-3.21-.464-4.197-1.045V9.518zM159.218 12.652h-2.222V.232h2.222v12.42zM166.13.232h5.06c3.95 0 6.419 2.438 6.419 6.152 0 3.83-2.469 6.151-6.419 6.151h-5.06V.232zm4.937 10.562c2.715 0 4.197-1.625 4.197-4.294 0-2.67-1.482-4.295-4.197-4.295h-2.715v8.705h2.715v-.116zM190.69.232V2.09h-5.8v3.018h5.184v1.857h-5.184v3.83h5.8v1.858h-8.022V.232h8.023zM198.22 7.545v4.99H196V.232h4.814c2.715 0 4.443 1.277 4.443 3.714 0 2.09-.987 3.25-3.086 3.599l4.69 5.107h-2.591l-4.567-4.991h-1.481v-.116zm0-1.742h2.47c1.48 0 2.344-.696 2.344-1.857 0-1.16-.864-1.857-2.345-1.857h-2.468v3.714z" fill="#185F7D"/></svg>